<?xml version="1.0" encoding="UTF-8" standalone="no"?>
<svg
   xmlns:dc="http://purl.org/dc/elements/1.1/"
   xmlns:cc="http://creativecommons.org/ns#"
   xmlns:rdf="http://www.w3.org/1999/02/22-rdf-syntax-ns#"
   xmlns:svg="http://www.w3.org/2000/svg"
   xmlns="http://www.w3.org/2000/svg"
   xmlns:sodipodi="http://sodipodi.sourceforge.net/DTD/sodipodi-0.dtd"
   xmlns:inkscape="http://www.inkscape.org/namespaces/inkscape"
   sodipodi:docname="logo.svg"
   inkscape:version="1.0beta1 (32d4812, 2019-09-19)"
   width="192px"
   height="192px"
   viewBox="0 0 192 192"
   version="1.1"
   id="SVGRoot">
  <defs
     id="defs2328" />
  <sodipodi:namedview
     inkscape:grid-bbox="true"
     inkscape:window-maximized="0"
     inkscape:window-y="23"
     inkscape:window-x="0"
     inkscape:window-height="855"
     inkscape:window-width="1440"
     showgrid="false"
     inkscape:document-rotation="0"
     inkscape:current-layer="layer1"
     inkscape:document-units="px"
     inkscape:cy="96"
     inkscape:cx="96"
     inkscape:zoom="3.3697917"
     inkscape:pageshadow="2"
     inkscape:pageopacity="0.0"
     borderopacity="1.0"
     bordercolor="#666666"
     pagecolor="#ffffff"
     id="base" />
  <metadata
     id="metadata2331">
    <rdf:RDF>
      <cc:Work
         rdf:about="">
        <dc:format>image/svg+xml</dc:format>
        <dc:type
           rdf:resource="http://purl.org/dc/dcmitype/StillImage" />
        <dc:title></dc:title>
      </cc:Work>
    </rdf:RDF>
  </metadata>
  <g
     id="layer1"
     inkscape:groupmode="layer"
     inkscape:label="Calque 1">
    <g
       style="opacity:1;fill:#505050;fill-opacity:1;stop-opacity:1"
       id="g1769"
       transform="matrix(0,-0.77776586,0.77561532,0,19.124734,213.76332)">
      <path
         style="fill:#505050;fill-opacity:1"
         inkscape:connector-curvature="0"
         d="m 100.8,174.8 c 1.3,-1.6 0.9,-3.9 -0.7,-5.1 C 78,154.1 63.5,128.3 63.5,99.1 c 0,-29.2 14.5,-55 36.6,-70.6 1.7,-1.2 2,-3.5 0.7,-5.1 v 0 C 99.6,22 97.6,21.7 96,22.8 72.2,39.7 56.5,67.6 56.5,99.1 c 0,31.5 15.7,59.4 39.6,76.3 1.5,1.1 3.6,0.9 4.7,-0.6 z"
         id="path1765" />
      <path
         style="fill:#505050;fill-opacity:1"
         inkscape:connector-curvature="0"
         d="m 199.2,23.4 v 0 c -1.3,1.6 -0.9,3.9 0.7,5.1 22.1,15.7 36.6,41.5 36.6,70.6 0,29.1 -14.5,55 -36.6,70.6 -1.7,1.2 -2,3.5 -0.7,5.1 v 0 c 1.2,1.4 3.2,1.7 4.8,0.6 23.9,-16.9 39.6,-44.9 39.6,-76.3 0,-31.5 -15.7,-59.4 -39.6,-76.3 -1.6,-1.1 -3.7,-0.8 -4.8,0.6 z"
         id="path1767" />
    </g>
    <g
       transform="matrix(1.0209622,0,0,1.023793,-57.19537,-4.4139)"
       id="g1787"
       style="opacity:1;fill:#505050;fill-opacity:1;stop-opacity:1">
      <path
         style="fill:#505050;fill-opacity:1"
         id="path1783"
         d="m 100.8,174.8 c 1.3,-1.6 0.9,-3.9 -0.7,-5.1 C 78,154.1 63.5,128.3 63.5,99.1 c 0,-29.2 14.5,-55 36.6,-70.6 1.7,-1.2 2,-3.5 0.7,-5.1 v 0 C 99.6,22 97.6,21.7 96,22.8 72.2,39.7 56.5,67.6 56.5,99.1 c 0,31.5 15.7,59.4 39.6,76.3 1.5,1.1 3.6,0.9 4.7,-0.6 z"
         inkscape:connector-curvature="0" />
      <path
         style="fill:#505050;fill-opacity:1"
         id="path1785"
         d="m 199.2,23.4 v 0 c -1.3,1.6 -0.9,3.9 0.7,5.1 22.1,15.7 36.6,41.5 36.6,70.6 0,29.1 -14.5,55 -36.6,70.6 -1.7,1.2 -2,3.5 -0.7,5.1 v 0 c 1.2,1.4 3.2,1.7 4.8,0.6 23.9,-16.9 39.6,-44.9 39.6,-76.3 0,-31.5 -15.7,-59.4 -39.6,-76.3 -1.6,-1.1 -3.7,-0.8 -4.8,0.6 z"
         inkscape:connector-curvature="0" />
    </g>
    <g
       transform="matrix(3.8091014,0,0,3.8196629,-3171.0147,-1489.8858)"
       id="g1919">
      <text
         xml:space="preserve"
         style="font-style:normal;font-variant:normal;font-weight:normal;font-stretch:normal;font-size:16.3423px;line-height:1.25;font-family:Futura;-inkscape-font-specification:'Futura Normal';font-variant-ligatures:normal;font-variant-caps:normal;font-variant-numeric:normal;font-variant-east-asian:normal;fill:#000000;fill-opacity:1;stroke:none;stroke-width:0.408556"
         x="768.84613"
         y="462.42221"
         id="text1909"
         transform="scale(1.0981895,0.91058965)"><tspan
           sodipodi:role="line"
           id="tspan1907"
           x="768.84613"
           y="462.42221"
           style="font-style:normal;font-variant:normal;font-weight:normal;font-stretch:normal;font-size:16.3423px;font-family:Futura;-inkscape-font-specification:'Futura Normal';font-variant-ligatures:normal;font-variant-caps:normal;font-variant-numeric:normal;font-variant-east-asian:normal;fill:#258e83;fill-opacity:1;stroke-width:0.408556">D</tspan></text>
      <text
         xml:space="preserve"
         style="font-style:normal;font-variant:normal;font-weight:normal;font-stretch:normal;font-size:13.8219px;line-height:1.25;font-family:Futura;-inkscape-font-specification:'Futura Normal';font-variant-ligatures:normal;font-variant-caps:normal;font-variant-numeric:normal;font-variant-east-asian:normal;fill:#000000;fill-opacity:1;stroke:none;stroke-width:0.345546"
         x="856.35645"
         y="420.29401"
         id="text1913"><tspan
           sodipodi:role="line"
           id="tspan1911"
           x="856.35645"
           y="420.29401"
           style="font-style:normal;font-variant:normal;font-weight:normal;font-stretch:normal;font-size:13.8219px;font-family:Futura;-inkscape-font-specification:'Futura Normal';font-variant-ligatures:normal;font-variant-caps:normal;font-variant-numeric:normal;font-variant-east-asian:normal;fill:#246bb2;fill-opacity:1;stroke-width:0.345546">V</tspan></text>
      <text
         id="text1917"
         y="420.29401"
         x="860.11292"
         style="font-style:normal;font-variant:normal;font-weight:normal;font-stretch:normal;font-size:13.8219px;line-height:1.25;font-family:Futura;-inkscape-font-specification:'Futura Normal';font-variant-ligatures:normal;font-variant-caps:normal;font-variant-numeric:normal;font-variant-east-asian:normal;fill:#000000;fill-opacity:1;stroke:none;stroke-width:0.345546"
         xml:space="preserve"><tspan
           style="font-style:normal;font-variant:normal;font-weight:normal;font-stretch:normal;font-size:13.8219px;font-family:Futura;-inkscape-font-specification:'Futura Normal';font-variant-ligatures:normal;font-variant-caps:normal;font-variant-numeric:normal;font-variant-east-asian:normal;fill:#246bb2;fill-opacity:1;stroke-width:0.345546"
           y="420.29401"
           x="860.11292"
           id="tspan1915"
           sodipodi:role="line">V</tspan></text>
    </g>
  </g>
</svg>
